<svg xmlns="http://www.w3.org/2000/svg" class="icon icon--success" width="20" height="20" viewBox="0 0 20 20">
    <path path="#241C15" d="M10 0c1.354 0 2.648.264 3.882.791s2.298 1.239 3.193 2.134c.895.895 1.606 1.96 2.134 3.193.527 1.234.791 2.528.791 3.882s-.264 2.648-.791 3.882-1.239 2.298-2.134 3.193c-.895.895-1.96 1.606-3.193 2.134-1.234.527-2.528.791-3.882.791s-2.648-.264-3.882-.791-2.298-1.239-3.193-2.134c-.895-.895-1.606-1.96-2.134-3.193-.527-1.234-.791-2.528-.791-3.882s.264-2.648.791-3.882 1.239-2.298 2.134-3.193c.895-.895 1.96-1.606 3.193-2.134 1.234-.527 2.528-.791 3.882-.791zm0 2.002c-1.087 0-2.124.212-3.11.635-.986.423-1.836.991-2.549 1.704-.713.713-1.281 1.563-1.704 2.549-.423.986-.635 2.023-.635 3.11s.212 2.124.635 3.11c.423.986.991 1.836 1.704 2.549.713.713 1.562 1.281 2.549 1.704s2.023.635 3.11.635 2.124-.212 3.11-.635 1.836-.991 2.549-1.704 1.281-1.562 1.704-2.549c.423-.986.635-2.023.635-3.11s-.212-2.124-.635-3.11c-.423-.986-.991-1.836-1.704-2.549s-1.563-1.281-2.549-1.704c-.986-.423-2.023-.635-3.11-.635zm-3.32 7.295l2.217 2.227 4.307-5.166 1.533 1.279-5.693 6.846-3.779-3.779 1.416-1.406z"/>
</svg>
