<svg xmlns="http://www.w3.org/2000/svg" class="icon icon--info" width="20" height="20" viewBox="0 0 20 20">
    <path fill="#241C15" d="M9 5h2v2h-2zM9 9h2v6h-2zM19.209 6.118c-.527-1.234-1.239-2.298-2.134-3.193-.895-.895-1.96-1.606-3.193-2.134-1.234-.527-2.528-.791-3.882-.791s-2.648.264-3.882.791-2.298 1.239-3.193 2.134c-.895.895-1.606 1.96-2.134 3.193-.527 1.234-.791 2.528-.791 3.882s.264 2.648.791 3.882 1.239 2.298 2.134 3.193c.895.895 1.96 1.606 3.193 2.134 1.234.527 2.528.791 3.882.791s2.648-.264 3.882-.791 2.298-1.239 3.193-2.134c.895-.895 1.606-1.96 2.134-3.193.527-1.234.791-2.528.791-3.882s-.264-2.648-.791-3.882zm-1.846 6.992c-.423.986-.991 1.836-1.704 2.549s-1.563 1.281-2.549 1.704c-.986.423-2.023.635-3.11.635-1.087 0-2.124-.212-3.11-.635-.986-.423-1.836-.991-2.549-1.704s-1.281-1.563-1.704-2.549c-.423-.986-.635-2.023-.635-3.11 0-1.087.212-2.124.635-3.11.423-.986.991-1.836 1.704-2.549s1.563-1.281 2.549-1.704c.986-.423 2.023-.635 3.11-.635 1.087 0 2.124.212 3.11.635.986.423 1.836.991 2.549 1.704s1.281 1.563 1.704 2.549c.423.986.635 2.023.635 3.11 0 1.087-.212 2.124-.635 3.11z"/>
</svg>
